<?xml version="1.0" encoding="utf-8"?>
<!-- Generator: Adobe Illustrator 28.1.0, SVG Export Plug-In . SVG Version: 6.00 Build 0)  -->
<svg version="1.1" id="Layer_1" xmlns="http://www.w3.org/2000/svg" xmlns:xlink="http://www.w3.org/1999/xlink" x="0px" y="0px"
	 viewBox="0 0 100 100" style="enable-background:new 0 0 100 100;" xml:space="preserve">
<style type="text/css">
	.st0{fill:#FFFFFF;}
</style>
<g>
	<path class="st0" d="M72,83.83c-4.79,3.54-9.8,5.63-15.86,5.45c0-0.88,0-1.67,0-2.46c0-12.66,0.03-25.31-0.05-37.97
		c-0.01-1.18-0.58-3.27-1.16-3.37c-2.03-0.35-4.2-0.16-6.25,0.2c-0.42,0.07-0.77,1.79-0.77,2.75c-0.05,12.66-0.03,25.31-0.03,37.97
		c0,0.88,0,1.75,0,2.58c-3.94,0.86-7.65-0.32-16.08-5.11c-3.01,3.11-6.03,6.37-9.2,9.47c-2,1.96-4.18,2.15-6.51,0.94
		c-2.08-1.08-3.35-3.18-2.8-5.51c0.34-1.42,1.19-2.87,2.19-3.95c2.71-2.94,5.64-5.66,8.42-8.54c0.49-0.51,1-1.4,0.88-2
		c-0.78-4.1-1.72-8.17-2.68-12.59c-2.59,0-5.68,0.03-8.77-0.01c-2.33-0.03-4.16-1.08-5.2-3.18C7.1,56.47,7.4,54.47,8.8,52.67
		c1.24-1.59,2.97-2.09,4.91-2.09c2.95,0,5.89,0,9.07,0c0-3.37,0.06-6.53-0.05-9.68c-0.02-0.61-0.65-1.28-1.14-1.78
		c-2.17-2.23-4.41-4.38-6.58-6.61c-2.43-2.49-2.48-5.85-0.19-8.1c2.18-2.14,5.54-2.08,7.96,0.26c2.66,2.57,5.18,5.3,7.91,7.79
		c0.83,0.76,2.15,1.39,3.24,1.39c12.07,0.1,24.15,0.09,36.22,0.01c1.03-0.01,2.28-0.58,3.06-1.29c2.56-2.35,4.95-4.89,7.42-7.34
		c2.92-2.89,6.16-3.17,8.61-0.79c2.41,2.34,2.14,5.74-0.68,8.59c-0.57,0.58-1.15,1.15-1.73,1.73c-6.31,6.3-6.31,6.3-5.45,15.82
		c3.19,0,6.43-0.05,9.66,0.02c2.36,0.05,4.04,1.27,4.98,3.44c0.92,2.13,0.59,4.26-1.08,5.69c-1.19,1.02-2.95,1.7-4.53,1.85
		c-2.92,0.29-5.9,0.08-8.77,0.08c-0.53,3.4-0.58,6.81-1.68,9.84c-1.12,3.08-0.22,4.82,1.97,6.73c2.4,2.08,4.55,4.45,6.79,6.72
		c2.68,2.73,2.86,6.08,0.49,8.45c-2.28,2.28-5.6,2.06-8.25-0.59C78.01,89.93,75.1,86.97,72,83.83z"/>
	<path class="st0" d="M71.45,25.51c-12.89,0-25.66,0-38.4,0c-0.98-9.63,8.15-18.98,18.74-19.33C62.33,5.83,71.73,14.96,71.45,25.51z
		"/>
</g>
</svg>
